HIERARCHY
ROOT RootJoint
{
    OFFSET   0.000000   0.000000   0.000000
    CHANNELS 6 Xposition Yposition Zposition Xrotation Yrotation Zrotation
    JOINT pelvis_lowerback
    {
        OFFSET   0.000000   0.093605   0.000000
        CHANNELS 3 Xrotation Yrotation Zrotation
        JOINT lowerback_torso
        {
            OFFSET   0.000000   0.100000   0.000000
            CHANNELS 3 Xrotation Yrotation Zrotation
            JOINT torso_head
            {
                OFFSET   0.000000   0.282350   0.000000
                CHANNELS 3 Xrotation Yrotation Zrotation
                End Site
                {
                    OFFSET   0.000000   0.192650   0.000000
                }
            }
            JOINT rTorso_Clavicle
            {
                OFFSET  -0.001000   0.157500   0.000000
                CHANNELS 3 Xrotation Yrotation Zrotation
                JOINT rShoulder
                {
                    OFFSET  -0.117647   0.000000   0.000000
                    CHANNELS 3 Xrotation Yrotation Zrotation
                    JOINT rElbow
                    {
                        OFFSET  -0.245000   0.000000   0.000000
                        CHANNELS 3 Xrotation Yrotation Zrotation
                        JOINT rWrist
                        {
                            OFFSET  -0.240000   0.000000   0.000000
                            CHANNELS 3 Xrotation Yrotation Zrotation
                            End Site
                            {
                                OFFSET  -0.116353  -0.002500   0.000000
                            }
                        }
                    }
                }
            }
            JOINT lTorso_Clavicle
            {
                OFFSET   0.001000   0.157500   0.000000
                CHANNELS 3 Xrotation Yrotation Zrotation
                JOINT lShoulder
                {
                    OFFSET   0.117647   0.000000   0.000000
                    CHANNELS 3 Xrotation Yrotation Zrotation
                    JOINT lElbow
                    {
                        OFFSET   0.245000   0.000000   0.000000
                        CHANNELS 3 Xrotation Yrotation Zrotation
                        JOINT lWrist
                        {
                            OFFSET   0.240000   0.000000   0.000000
                            CHANNELS 3 Xrotation Yrotation Zrotation
                            End Site
                            {
                                OFFSET   0.116353  -0.002500   0.000000
                            }
                        }
                    }
                }
            }
        }
    }
    JOINT rHip
    {
        OFFSET  -0.100000  -0.051395   0.000000
        CHANNELS 3 Xrotation Yrotation Zrotation
        JOINT rKnee
        {
            OFFSET   0.000000  -0.410000   0.000000
            CHANNELS 3 Xrotation Yrotation Zrotation
            JOINT rAnkle
            {
                OFFSET   0.000000  -0.390000   0.000000
                CHANNELS 3 Xrotation Yrotation Zrotation
                JOINT rToeJoint
                {
                    OFFSET   0.000000  -0.050000   0.130000
                    CHANNELS 3 Xrotation Yrotation Zrotation
                    End Site
                    {
                        OFFSET  -0.010000   0.002000   0.060000
                    }
                }
            }
        }
    }
    JOINT lHip
    {
        OFFSET   0.100000  -0.051395   0.000000
        CHANNELS 3 Xrotation Yrotation Zrotation
        JOINT lKnee
        {
            OFFSET   0.000000  -0.410000   0.000000
            CHANNELS 3 Xrotation Yrotation Zrotation
            JOINT lAnkle
            {
                OFFSET   0.000000  -0.390000   0.000000
                CHANNELS 3 Xrotation Yrotation Zrotation
                JOINT lToeJoint
                {
                    OFFSET   0.000000  -0.050000   0.130000
                    CHANNELS 3 Xrotation Yrotation Zrotation
                    End Site
                    {
                        OFFSET   0.010000   0.002000   0.060000
                    }
                }
            }
        }
    }
}
MOTION
Frames: 5
Frame Time:   0.008333
 -2.344627   0.922086   4.038602   3.491677  -2.249347  -2.288919  -3.241753  -2.433472   1.478617 -10.198295  -3.221141  -1.275844  -1.170908  -4.977696  -1.619538  -7.238192   9.171031 -26.384004 -37.172794  32.656283 -25.884556  -0.000044  37.265286   0.000242   9.728049   6.799673 -23.118776 -12.864739 -10.027454  28.219690 -43.358622 -28.373748  16.752011   0.000124 -43.318714  -0.000050   8.615274  -6.765296  28.359942  -1.910188  -3.342301  -4.693192   4.153816   0.000006  -0.000006   1.934810  -4.214084   7.123601 -10.704052  -0.000012  -0.000003   2.115699   1.228513   5.081286   0.100924   0.000000  -0.000002  -5.938179   5.586331   2.531248   0.395835   0.000001   0.000000
 -2.344636   0.922084   4.038458   3.487014  -2.219199  -2.279038  -3.246830  -2.439152   1.482997 -10.178704  -3.212620  -1.277336  -1.164399  -4.985422  -1.622645  -7.203702   9.112096 -26.399712 -37.218060  32.644757 -25.877694  -0.000060  37.143102   0.000213   9.739720   6.784247 -23.203518 -12.866984  -9.938901  28.204856 -43.468069 -28.353920  16.709457   0.000111 -43.263439  -0.000051   8.622360  -6.746249  28.530503  -1.897387  -3.350910  -4.700777   4.133585   0.000005  -0.000009   1.927496  -4.241635   7.112535 -10.670452  -0.000007  -0.000003   2.114797   1.202807   5.073781   0.086030   0.000001  -0.000002  -5.914198   5.581300   2.515883   0.392457   0.000001   0.000000
 -2.344645   0.922078   4.038292   3.485246  -2.193136  -2.265723  -3.245700  -2.449161   1.486509 -10.155471  -3.208963  -1.285360  -1.162884  -5.003315  -1.622606  -7.189801   9.041342 -26.416268 -37.270325  32.625769 -25.869601  -0.000068  37.022954   0.000214   9.752598   6.771774 -23.260250 -12.890303  -9.836543  28.204694 -43.580968 -28.325622  16.665983   0.000111 -43.198432  -0.000053   8.750901  -6.949646  28.672135  -1.889150  -3.357905  -4.711648   4.112372   0.000004  -0.000010   1.916619  -4.267792   7.101489 -10.628019  -0.000002  -0.000003   2.110871   1.179334   5.062661   0.069118   0.000001  -0.000002  -5.888001   5.577842   2.500663   0.389090   0.000000   0.000000
 -2.344658   0.922071   4.038119   3.485263  -2.171589  -2.251559  -3.242292  -2.460759   1.488584 -10.133411  -3.207257  -1.294628  -1.158865  -5.021766  -1.620395  -7.186054   8.970016 -26.431758 -37.323817  32.603299 -25.863507  -0.000065  36.908545   0.000220   9.765467   6.759907 -23.312241 -12.919420  -9.735597  28.209670 -43.686955 -28.300461  16.631100   0.000113 -43.140796  -0.000050   8.736063  -6.892429  28.764232  -1.883643  -3.363245  -4.723111   4.089896   0.000004  -0.000012   1.905937  -4.291350   7.090686 -10.583177   0.000001  -0.000003   2.105154   1.158643   5.050665   0.051847   0.000001  -0.000002  -5.861595   5.576022   2.486296   0.385940  -0.000000   0.000000
 -2.344674   0.922064   4.037942   3.485962  -2.154055  -2.237486  -3.237892  -2.473693   1.489637 -10.112788  -3.207478  -1.304741  -1.154174  -5.041509  -1.616479  -7.188680   8.900364 -26.445822 -37.376683  32.580109 -25.859127  -0.000057  36.800609   0.000226   9.777826   6.748279 -23.364115 -12.953824  -9.638284  28.218858 -43.789016 -28.276833  16.601020   0.000121 -43.083403  -0.000042   8.725469  -6.844791  28.851231  -1.879756  -3.367062  -4.734182   4.067158   0.000004  -0.000012   1.896039  -4.312346   7.080148 -10.538264   0.000004  -0.000003   2.098743   1.140533   5.038859   0.035045   0.000001  -0.000002  -5.835853   5.575631   2.472868   0.383058  -0.000001   0.000000
